<?xml version="1.0" encoding="UTF-8"?><svg xmlns="http://www.w3.org/2000/svg" viewBox="0 0 1281 799.72"><defs><style>.cls-1{fill:#333;}.cls-2{fill:#e6e6e6;}.cls-3{fill:gray;}.cls-4{fill:#b3b3b3;}</style></defs><g id="Layer_2"><polyline class="cls-2" points="1281 231.5 1232.14 284.1 1149.58 257.8 1083.5 106.6 1017.5 28.16 930.5 70.4 870.5 194.09 794.5 106.6 722.5 242.37 661.5 301.7 587.5 227.28 542.5 102.58 477.5 21.12 399.5 0 333.5 72.41 275.5 208.17 220.51 284.1 147.5 236.33 93.5 128.72 51.5 244.38 1 182.39 1 799 1281 799 1281 238.52"/></g><g id="Layer_3"><path class="cls-4" d="m1281,321.85s-7,27.57-17,33.5-38,30.63-50,34.58-51.56-2.96-56.28,0-52.21-29.28-60.47-33.42c-8.26-4.13-37.26-52.55-54.26-82.19-17-29.64-36-47.43-41-52.37s-44-15.81-51-21.74-27-12.85-41-11.86-64,11.86-76,19.76c-12,7.9-28,22.73-32,28.65s13,10.87-19,27.67-44.7,22.73-54.35,28.65-51.16,0-51.16,0c0,0-46.49-13.83-54.49-20.75s-12-.99-27-27.67-17-23.71-21-41.5-70-67.19-70-67.19c0,0-90,4.94-97,8.89s-25,11.86-36,22.73c-11,10.87-19,18.77-32,27.67s-29,11.86-43,21.74-45,26.68-54,34.58-13,16.8-35,28.65-43,17.79-48,21.74-28-10.87-37-3.95c-9,6.92-35,19.76-48,34.58-13,14.82-28,23.71-32,31.62S1,410.32,1,410.32v388.68h1280v-477.15Z"/></g><g id="Layer_5"><g><path class="cls-4" d="m514.62,153s-12.86-18.71-6.22-63.49c0,0,25.72-5.1,33.61,7.37,0,0-5.81-20.41-33.19-22.11,0,0,21.57-4.54,29.04,3.97,0,0-14.94-19.27-34.85-13.04,0,0-9.13-16.44-19.09-11.91,0,0,8.71,6.24,9.13,12.47,0,0-21.57-2.27-29.04,11.91,0,0,24.89-5.67,29.46,2.83,0,0-26.14,0-27.38,19.27,0,0,18.67-11.91,26.97-3.97,0,0-4.98,33.45.41,56.69h21.16Z"/><path class="cls-4" d="m499.19,60.99s14.82-4.89,25.13,3.8c0,0-19.63-2.34-19.84,4.61s-5.29-8.41-5.29-8.41Z"/></g><g><path class="cls-4" d="m562.45,192s-12.86-18.71-6.22-63.49c0,0,25.72-5.1,33.61,7.37,0,0-5.81-20.41-33.19-22.11,0,0,21.57-4.54,29.04,3.97,0,0-14.94-19.27-34.85-13.04,0,0-9.13-16.44-19.09-11.91,0,0,8.71,6.24,9.13,12.47,0,0-21.57-2.27-29.04,11.91,0,0,24.89-5.67,29.46,2.83,0,0-26.14,0-27.38,19.27,0,0,18.67-11.91,26.97-3.97,0,0-4.98,33.45.41,56.69h21.16Z"/><path class="cls-4" d="m547.02,99.99s14.82-4.89,25.13,3.8c0,0-19.63-2.34-19.84,4.61s-5.29-8.41-5.29-8.41Z"/></g><g><path class="cls-4" d="m249.45,268s-12.86-18.71-6.22-63.49c0,0,25.72-5.1,33.61,7.37,0,0-5.81-20.41-33.19-22.11,0,0,21.57-4.54,29.04,3.97,0,0-14.94-19.27-34.85-13.04,0,0-9.13-16.44-19.09-11.91,0,0,8.71,6.24,9.13,12.47,0,0-21.57-2.27-29.04,11.91,0,0,24.89-5.67,29.46,2.83,0,0-26.14,0-27.38,19.27,0,0,18.67-11.91,26.97-3.97,0,0-4.98,33.45.41,56.69h21.16Z"/><path class="cls-4" d="m234.02,175.99s14.82-4.89,25.13,3.8c0,0-19.63-2.34-19.84,4.61s-5.29-8.41-5.29-8.41Z"/></g><g><path class="cls-4" d="m219.45,308s-12.86-18.71-6.22-63.49c0,0,25.72-5.1,33.61,7.37,0,0-5.81-20.41-33.19-22.11,0,0,21.57-4.54,29.04,3.97,0,0-14.94-19.27-34.85-13.04,0,0-9.13-16.44-19.09-11.91,0,0,8.71,6.24,9.13,12.47,0,0-21.57-2.27-29.04,11.91,0,0,24.89-5.67,29.46,2.83,0,0-26.14,0-27.38,19.27,0,0,18.67-11.91,26.97-3.97,0,0-4.98,33.45.41,56.69h21.16Z"/><path class="cls-4" d="m204.02,215.99s14.82-4.89,25.13,3.8c0,0-19.63-2.34-19.84,4.61s-5.29-8.41-5.29-8.41Z"/></g><g><path class="cls-4" d="m292.45,264s-12.86-18.71-6.22-63.49c0,0,25.72-5.1,33.61,7.37,0,0-5.81-20.41-33.19-22.11,0,0,21.57-4.54,29.04,3.97,0,0-14.94-19.27-34.85-13.04,0,0-9.13-16.44-19.09-11.91,0,0,8.71,6.24,9.13,12.47,0,0-21.57-2.27-29.04,11.91,0,0,24.89-5.67,29.46,2.83,0,0-26.14,0-27.38,19.27,0,0,18.67-11.91,26.97-3.97,0,0-4.98,33.45.41,56.69h21.16Z"/><path class="cls-4" d="m277.02,171.99s14.82-4.89,25.13,3.8c0,0-19.63-2.34-19.84,4.61s-5.29-8.41-5.29-8.41Z"/></g><g><path class="cls-4" d="m782.55,282s-12.86-18.71-6.22-63.49c0,0,25.72-5.1,33.61,7.37,0,0-5.81-20.41-33.19-22.11,0,0,21.57-4.54,29.04,3.97,0,0-14.94-19.27-34.85-13.04,0,0-9.13-16.44-19.09-11.91,0,0,8.71,6.24,9.13,12.47,0,0-21.57-2.27-29.04,11.91,0,0,24.89-5.67,29.46,2.83,0,0-26.14,0-27.38,19.27,0,0,18.67-11.91,26.97-3.97,0,0-4.98,33.45.41,56.69h21.16Z"/><path class="cls-4" d="m767.13,189.99s14.82-4.89,25.13,3.8c0,0-19.63-2.34-19.84,4.61-.21,6.95-5.29-8.41-5.29-8.41Z"/></g><g><path class="cls-4" d="m740.91,302s-9.9-14.41-4.79-48.89c0,0,19.81-3.93,25.88,5.68,0,0-4.47-15.72-25.56-17.03,0,0,16.61-3.49,22.36,3.06,0,0-11.5-14.84-26.84-10.04,0,0-7.03-12.66-14.7-9.17,0,0,6.71,4.8,7.03,9.6,0,0-16.61-1.75-22.36,9.17,0,0,19.17-4.37,22.68,2.18,0,0-20.13,0-21.09,14.84,0,0,14.38-9.17,20.77-3.06,0,0-3.83,25.76.32,43.65h16.29Z"/><path class="cls-4" d="m729.03,231.15s11.41-3.77,19.35,2.92c0,0-15.12-1.8-15.28,3.55s-4.08-6.47-4.08-6.47Z"/></g><g><path class="cls-4" d="m804.13,265s-7.93-11.53-3.83-39.12c0,0,15.85-3.14,20.71,4.54,0,0-3.58-12.58-20.45-13.62,0,0,13.29-2.79,17.9,2.45,0,0-9.2-11.88-21.48-8.03,0,0-5.62-10.13-11.76-7.34,0,0,5.37,3.84,5.62,7.69,0,0-13.29-1.4-17.9,7.34,0,0,15.34-3.49,18.15,1.75,0,0-16.11,0-16.87,11.88,0,0,11.5-7.34,16.62-2.45,0,0-3.07,20.61.26,34.93h13.04Z"/><path class="cls-4" d="m794.62,208.31s9.13-3.01,15.49,2.34c0,0-12.1-1.44-12.22,2.84s-3.26-5.18-3.26-5.18Z"/></g><g><path class="cls-4" d="m1171.55,402s-12.86-18.71-6.22-63.49c0,0,25.72-5.1,33.61,7.37,0,0-5.81-20.41-33.19-22.11,0,0,21.57-4.54,29.04,3.97,0,0-14.94-19.27-34.85-13.04,0,0-9.13-16.44-19.09-11.91,0,0,8.71,6.24,9.13,12.47,0,0-21.57-2.27-29.04,11.91,0,0,24.89-5.67,29.46,2.83,0,0-26.14,0-27.38,19.27,0,0,18.67-11.91,26.97-3.97,0,0-4.98,33.45.41,56.69h21.16Z"/><path class="cls-4" d="m1156.13,309.99s14.82-4.89,25.13,3.8c0,0-19.63-2.34-19.84,4.61-.21,6.95-5.29-8.41-5.29-8.41Z"/></g><g><path class="cls-4" d="m1198.82,399s-7.6-11.06-3.68-37.52c0,0,15.2-3.02,19.86,4.36,0,0-3.43-12.06-19.62-13.07,0,0,12.75-2.68,17.16,2.35,0,0-8.83-11.39-20.6-7.71,0,0-5.39-9.72-11.28-7.04,0,0,5.15,3.69,5.39,7.37,0,0-12.75-1.34-17.16,7.04,0,0,14.71-3.35,17.41,1.68,0,0-15.45,0-16.18,11.39,0,0,11.03-7.04,15.94-2.35,0,0-2.94,19.77.25,33.5h12.5Z"/><path class="cls-4" d="m1189.7,344.63s8.76-2.89,14.85,2.24c0,0-11.6-1.38-11.72,2.72s-3.13-4.97-3.13-4.97Z"/></g></g><g id="Layer_4"><path class="cls-3" d="m1281,490.31s-21-16.1-43-36.61-44-15.38-61-44.44c-17-29.06-23-18.8-37-49.57s-21-49.57-30-64.96-18-25.64-26-39.32-13.95-17.09-16.98-23.08-71.02,70.94-71.02,70.94c0,0-10.65,42.26-24.33,57.88-13.67,15.62-18.67,15.62-26.67,27.59-8,11.97-42,42.74-47,49.57s-52,41.03-81,35.9-109,6.84-122,6.84-44-15.46-54-20.55c-10-5.09-46-35.86-52-35.86s-90,58.12-95,58.12-51,25.64-68,39.32-22,56.41-50,35.9c-28-20.51-58-30.77-73-52.99s-24-41.03-34-51.28-34-100.85-47-105.98c-13-5.13-67-29.06-67-29.06l-43,59.83s-42,70.09-47,80.34-46,49.57-46,49.57l-18,35.58v255.02h1280v-308.69Z"/></g><g id="Layer_8"><path class="cls-1" d="m1082,769s-13-8-33-28-4,0-4,0l-38-8s-74-115-10-237c0,0,42-37,90-39s84-40,84-40c0,0-92,33-128,36s84-49,108-75l-6-13-18,15s-4-24-5-20-17,21-17,21l-11-6s-26,27-50,33c0,0-1-19,44-37s-40-6-40-6l-20,13s-31,19-41,39,7-43,32-56-32,10-32,10l-13-16-10,24-15-16-12,42-25-50-16,27-16,30-44-37,2,45s-28,4-31-14-7,14-7,14c0,0-36-14-34-32s-17,16-17,16l54,32,70,37,24,35s9,188-57,217-81,25-81,25l-24,27,370,9-23-17Z"/></g><g id="Layer_9"><path class="cls-1" d="m1056,456c30.47-13.95,81.02-7.63,101-28,2.26-2.3,7.27-8.16,14-8,6.06.14,8.27,5.03,13,4,6.3-1.38,7.22-11.11,12-11,2.65.06,2.51,3.07,7,5,5.95,2.56,12.11-.16,14-1,2.17-.96,3.85-1.7,4-3,.37-3.1-8.43-5.43-8-8,.26-1.56,3.76-2.31,7-3,5.46-1.17,7.9-.37,9-2,1.05-1.55.21-4.27-1-6-2.64-3.79-7.05-2.85-16-6-3.09-1.09-1.84-.94-9-4-8.92-3.81-13.37-5.71-16-6-8.97-.99-11.62,3.79-18,1-1.83-.8-1.52-1.15-8-5-2.2-1.3-2.93-1.67-7-4-8.91-5.08-10.13-5.99-10-7,.21-1.71,4.17-2.59,6-3,5.28-1.18,7.13.53,10-1,3.2-1.7,5.19-6.12,4-8-1.09-1.73-4.15-.25-9-1-7.86-1.22-14.79-7.43-14-10,.59-1.9,5.45-1.97,8-2,5.2-.07,9.07,1.36,16,4,3.29,1.25,5.77,2.2,9,4,3.52,1.97,4.5,3.04,8,5,2.1,1.18,5.53,3.09,9,4,8.01,2.09,10.72-2.64,24-3,3.89-.1,4.52.28,9,0,6.06-.38,8.69-1.31,13-2,13.88-2.22,21.71,1.89,24-2,1.1-1.87-.48-3.19,1-7,.8-2.06,1.46-2.18,4-6,1.39-2.09,2.83-4.25,4-7,1.44-3.39,2.38-5.61,2-8-.68-4.27-5.18-6.77-11-10-6.53-3.62-7.71-2.68-13-6-5.78-3.63-5.18-5.26-10-8-3.77-2.14-7.85-2.76-16-4-9.54-1.45-14.3-2.17-18-1-6.45,2.05-7.4,5.93-13,6-3.82.05-3.93-1.74-10-3-2.9-.6-8.25-1.71-14,0-5.69,1.69-7.08,4.75-11,4-2.45-.47-5.04-2.26-5-4,.04-1.71,2.59-2.91,5-4,6.95-3.16,11.15-1.94,12-4,1.13-2.74-5.1-7.91-5-8,.07-.06,3.13,2.86,3,3-.22.23-11.46-5.88-14-16-1.01-4,0-6.07-2-8-.8-.78-2.74-2.17-13-1-8.73,1-8.44,2.13-13,2-2.39-.07-2.52-.38-14-3-5.46-1.25-4.38-.94-9-2-10.86-2.5-11.16-2.91-14-3-1.44-.05-6.3-.09-12,2-4.01,1.47-6.72,3.38-9,5-5.08,3.62-4.68,4.77-9,8-1.5,1.12-1.77,1.15-14,7-7.52,3.6-8.73,4.21-11,4-1.04-.1-.59-.2-9-3-2.84-.94-3.88-1.26-4-2-.15-.9,1.13-2.04,7-5,5.04-2.54,7.55-3.8,11-5,7.55-2.62,10.98-2.38,12-5,.6-1.55.2-3.7-1-5-2.57-2.78-7.08.16-17-1-1.2-.14-2.8-.43-6-1-8.2-1.47-8.98-.99-10-2-1.47-1.45-1.01-3.14-1-13,0-7.46-.25-8.32-1-9-2.73-2.47-7.2,1.95-14,0-2.72-.78-2.26-1.56-8-5-4.8-2.88-8.25-4.94-13-6-2.07-.46-6.04-.31-14,0-6.55.25-9.61.61-10,2-.4,1.43,2.37,2.75,2,4-.57,1.92-7.83,1.27-12,1-6.79-.45-18.75-1.23-30,1-8.23,1.63-7.23,3.12-17,5-6.72,1.29-10.65,1.25-12,4-1.31,2.66.3,6.92,3,9,2.48,1.9,4.01.53,13,2,4.21.69,6.44,1.41,8,2,2.4.92,4.27,1.81,6,3,2.29,1.59,4.25,2.94,4,4-.42,1.79-7.06,2.67-13,1-3.52-.99-3.8-2.04-10-5-3.58-1.71-6.49-3.1-10-4-7.85-2.02-14.64-.54-17,0-3.48.8-1.67.9-15,6-6.57,2.51-9.86,3.77-11,4-3.19.65-5.48.68-6,2-.78,1.98,2.98,5.14,4,6,6.78,5.72,14.03,5.67,14,7-.04,1.62-10.71,2.61-15,3-12.84,1.16-23,1-23,1-12.21-.19-12.68-1.18-17,0-1.31.36-2.89.89-16,9-11.02,6.81-11.38,7.34-14,8-6.37,1.6-10.08-.08-13,3-1.9,2-2.79,5.29-2,8,1.45,4.97,8.25,6.99,15,9,5.35,1.59,6.61,1.08,11,3,2.57,1.12,9.26,4.05,9,7-.21,2.33-4.67,3.61-13,6-6.52,1.87-9.84,2.78-13,2-4.49-1.11-4.81-3.65-10-6-2.86-1.3-5.38-1.71-13-2-9.6-.36-14.39-.54-21,0-10.76.89-19.07,2.87-28,5-9.48,2.26-10.58,3.08-17,4-7.81,1.12-9.5.39-16,2-2.06.51-.83.32-14,5-5.2,1.85-7.79,2.73-11,5-3.04,2.15-6.08,4.31-6,7,.15,4.66,9.57,7.56,11,8,4.77,1.47,7.97,1.18,15,1,16.68-.43,15.33.78,27,0,5.33-.36,10.76.05,16-1,1.96-.39,5.66-1.24,10,0,.57.16,5.04,1.44,5,3-.05,1.7-5.43,2.08-15,5-9.28,2.83-8.88,3.91-17,6-5.82,1.5-7.17,1.24-11,3-4.78,2.19-7.76,4.91-10,7-2.82,2.62-4.23,3.94-4,5,.44,2.03,4.98,2.24,19,4,8.83,1.11,6.65.97,15,2,8.85,1.09,10.53,1.14,14,2,7.43,1.84,7.58,3.53,13,5,7.63,2.07,16.42.05,34-4,1.2-.28,4.44-1.04,9-2,5.13-1.09,9.26-1.87,10-2,10.45-1.87,20.22,4.51,46,12,5.95,1.73,12.86,3.55,15,9,.21.52,1.4,3.58,0,6-2.11,3.64-8.67,3.38-16,3-5.9-.3-6.81-.98-15-2-8.67-1.08-13-1.62-18-1-5.2.64-3.86,1.48-16,5-9.24,2.68-13.24,3.14-18,7-2.38,1.93-5.24,4.25-5,7,.4,4.62,9.23,7.27,15,9,7.12,2.14,13.72,2.87,20,3,11.51.24,12.03-1.73,26-2,11.94-.23,12.01,1.2,19,0,7.46-1.29,10.22-3.41,17-3,5.46.33,7.22,1.93,12,3,8.71,1.95,14.95-.64,24-3,8.91-2.32,3.72-.03,37-5,21.6-3.23,22.24-3.96,33-5,16.71-1.62,25.07-2.42,31-1,22.13,5.31,22.34,23.53,45,28,13.91,2.75,27-1,27-1,4.07-1.16,6.94-2.52,8-3Z"/></g><g id="Layer_10"><path class="cls-1" d="m825,442c-1.65-.05-9.56,46.68,4,97,5.73,21.27,11.22,40.53,27,46,16.63,5.77,36.96-6.47,47-16,6.72-6.38,10.71-13.34,10-14-1.14-1.06-12.07,15.97-30,19-14.76,2.49-27.11-5.7-29-7-14.02-9.59-17.67-25.33-22-44-2.25-9.69-3.2-22.92-5-49-1.97-28.49-1.55-31.99-2-32Z"/><path class="cls-1" d="m790,443c-1.55-.11-5.41,25.23-7,50-2.12,32.98,1.73,34.44,1,68-.89,41.25-7.19,61.22,4,83,6.15,11.98,13.01,15.58,17,17,11.18,3.97,21.35-1.63,22-2,2.47-1.41,8.67-5.53,15-24,5.26-15.35,6-27.72,7-41,3.6-47.69,2.37-43.76,4-55,2.81-19.43,5.64-25.37,6-43,.06-3.1.23-15.66-4-31-.63-2.3-4.51-16.36-7-16-2.47.35-2.55,14.76-2,24,.9,15.09,3.67,19.53,5,30,1.63,12.8-1.59,13.43-6,45-.29,2.08-1.86,15.72-5,43-.95,8.27-2.34,20.39-8,35-5.17,13.36-9.21,16.66-13,18-6.25,2.21-13.47-.29-18-4-6.81-5.58-8.04-14.32-9-29-1.45-22.1-1.08-39.06-1-43,.66-33.66-2.04-30.65-1-61,.33-9.78,1-21.27,1-40,0-13.25,0-23.93-1-24Z"/><path class="cls-1" d="m730,393c-6.83,7.55.8,17.93-1,38-.81,9.03-2.31,6.42-5,22-2.52,14.56-4.02,23.27-2,34,2.1,11.17,5.57,11.44,7,23,.51,4.1.42,6.86-1,22-2.33,24.8-3.51,32.59-2,33,1.32.36,4.27-5.06,6-10,4.11-11.74-.18-16.38,1-34,.74-11.07,2.73-13.58,1-21-1.17-5.04-2.68-6.41-4-13-1.14-5.69-1.08-9.96-1-16,.08-5.98.17-12.23,2-20,1.87-7.94,3.17-7.33,5-15,.6-2.5,1.07-8.7,2-21,1.72-22.83.78-17.75,1-19,.58-3.2,1.31-6.04,0-7-1.7-1.25-6.36,1.07-9,4Z"/><path class="cls-1" d="m1025,470h0c-6.66,16.16-6.95,28.63-6,37,1.24,10.95,4.76,16.33,5,31,.11,6.91-.59,11.94-2,22-2.66,19-4.71,19.93-6,32-.97,9.08.42,6.42,1,36,.38,19.51-.21,21.36,1,30,1.22,8.74,2.52,11.8,3,21,.48,9.21-.59,10.5,0,19,.75,10.71,3.39,22.11,5,22,1.36-.09,1.99-8.49,2-14,.02-11.63-2.74-13.33-3-24-.19-7.79,1.27-6.98,2-21,.25-4.78.54-10.69,0-18-.64-8.79-1.7-9.04-3-19-1.17-8.95-2.39-18.96,0-31,.85-4.29,1.04-3.18,3-11,.69-2.75,3.06-12.44,5-27,2.16-16.23,3.24-24.34,2-31-1.21-6.53-2.86-8.84-4-18-.72-5.8-.87-11.35-1-16-.11-3.99-.22-8.13,0-13,.25-5.5.97-13.03,3-22"/><path class="cls-1" d="m1055,460c-6.14,4.85-4.24,14.92-2,38,2.82,28.98,4,45,4,45s.52,7.02,4,25c.92,4.73,1.67,8.16,4,12,3.36,5.56,10.37,12.6,15,11,3.83-1.32,2.44-7.3,8-21,1.88-4.63,3.59-7.75,7-14,7.34-13.43,8.94-13.01,12-20,4.55-10.38,4.83-20,5-26,.33-11.27-1.96-11.82-1-22,.69-7.29,1.92-7.7,4-20,3.15-18.65.78-20.54,0-21-1.96-1.15-5.36-.04-7,2-2.68,3.34.64,7.58,1,16,.23,5.36-1.06,4.72-3,17-1.12,7.08-1.53,12.63-2,19-.91,12.29-.15,11.6-1,17-.74,4.7-2.04,12.53-7,21-3.84,6.55-5.85,5.1-12,14-3.48,5.04-4.57,7.84-7,8-3.64.23-6.77-5.69-9-10-5.4-10.45-6.61-20.3-7-25-1.09-13.06,1.87-12.88,0-23-1.74-9.41-4.63-11.34-4-19,.32-3.92,1.48-8.27,3-14,1.95-7.35,3.44-10.82,2-12-1.41-1.16-4.97.4-7,2Z"/><path class="cls-1" d="m1144,432c-5.87,7.9-2.82,16.99-1,39,.83,10.09,1.25,15.14,1,22-.64,17.53-4.34,19.2-4,33,.21,8.82,1.69,6.79,4,27,.48,4.17.41,4.25,2,21,1.91,20.14,1.86,18.53,2,21,.78,13.57.24,26.54,0,32-.51,11.59-1.3,17.69,0,18,1.2.28,3.68-4.53,5-9,2.63-8.89.07-14.29,0-25-.04-6.11.79-4.62,2-17,1.71-17.5,2.56-26.25,0-35-1.98-6.77-4.31-9.27-5-17-.46-5.13.14-8.91,1-14,4.42-26.14,5.57-25.8,6-34,.21-3.99-.22-1.06-1-24-.33-9.62-.29-11.32-1-15-1.61-8.38-3.81-10.03-4-17-.17-6.31,1.49-10.23,0-11-1.48-.77-4.92,2.2-7,5Z"/></g><g id="Layer_6"><path class="cls-1" d="m0,769.7l8-31.7,10.7,31.7,10.21-31.7,12.26,31.7,9.19-31.7,11.64,36,14.91-36,7.15,36,16.34-36,7.15,36s16.23-36,16.34-36,7.15,36,7.15,36l16.34-36,9.19,36v25H0v-29.3Z"/><path class="cls-1" d="m156.41,769.8l8-31.7,10.7,31.7,10.21-31.7,12.26,31.7,9.19-31.7,11.64,36,14.91-36,7.15,36,16.34-36,7.15,36s16.23-36,16.34-36,7.15,36,7.15,36l16.34-36,9.19,36v25h-156.57v-29.3Z"/><path class="cls-1" d="m312.24,770.01l8-31.7,10.7,31.7,10.21-31.7,12.26,31.7,9.19-31.7,11.64,36,14.91-36,7.15,36,16.34-36,7.15,36s16.23-36,16.34-36,7.15,36,7.15,36l16.34-36,9.19,36v25h-156.57v-29.3Z"/><path class="cls-1" d="m467.59,770.07l8-31.7,10.7,31.7,10.21-31.7,12.26,31.7,9.19-31.7,11.64,36,14.91-36,7.15,36,16.34-36,7.15,36s16.23-36,16.34-36,7.15,36,7.15,36l16.34-36,9.19,36v25h-156.57v-29.3Z"/><path class="cls-1" d="m623.35,770.09l8-31.29,10.7,31.29,10.21-31.29,12.26,31.29,9.19-31.29,11.64,35.53,14.91-35.53,7.15,35.53,16.34-35.53,7.15,35.53s16.23-35.53,16.34-35.53,7.15,35.53,7.15,35.53l16.34-35.53,9.19,35.53v24.67h-156.57v-28.91Z"/><path class="cls-1" d="m779.61,770.17l8-31.29,10.7,31.29,10.21-31.29,12.26,31.29,9.19-31.29,11.64,35.53,14.91-35.53,7.15,35.53,16.34-35.53,7.15,35.53s16.23-35.53,16.34-35.53,7.15,35.53,7.15,35.53l16.34-35.53,9.19,35.53v24.67h-156.57v-28.91Z"/><path class="cls-1" d="m935.12,770.42l8-31.29,10.7,31.29,10.21-31.29,12.26,31.29,9.19-31.29,11.64,35.53,14.91-35.53,7.15,35.53,16.34-35.53,7.15,35.53s16.23-35.53,16.34-35.53,7.15,35.53,7.15,35.53l16.34-35.53,9.19,35.53v24.67h-156.57v-28.91Z"/><path class="cls-1" d="m1091.31,770.63l8-31.29,10.7,31.29,10.21-31.29,12.26,31.29,9.19-31.29,11.64,35.53,14.91-35.53,7.15,35.53,16.34-35.53,7.15,35.53s16.23-35.53,16.34-35.53,7.15,35.53,7.15,35.53l16.34-35.53,9.19,35.53v24.67h-156.57v-28.91Z"/><polygon class="cls-1" points="1281 751.38 1281 799.72 1247.44 799.72 1247.44 770.8 1255.44 739.52 1266.14 770.8 1276.35 739.52 1281 751.38"/></g></svg>